<svg width="81" height="80" viewBox="0 0 81 80" fill="none" xmlns="http://www.w3.org/2000/svg">
<mask id="mask0_5799_20609" style="mask-type:luminance" maskUnits="userSpaceOnUse" x="1" y="0" width="79" height="80">
<path d="M1.14502 0.616943H79.8553V79.3272H1.14502V0.616943Z" fill="white"/>
</mask>
<g mask="url(#mask0_5799_20609)">
<mask id="mask1_5799_20609" style="mask-type:luminance" maskUnits="userSpaceOnUse" x="1" y="0" width="79" height="80">
<path d="M40.5001 0.616943C18.7649 0.616943 1.14502 18.2368 1.14502 39.9721C1.14502 61.7073 18.7649 79.3272 40.5001 79.3272C62.2354 79.3272 79.8553 61.7073 79.8553 39.9721C79.8553 18.2368 62.2354 0.616943 40.5001 0.616943Z" fill="white"/>
</mask>
<g mask="url(#mask1_5799_20609)">
<path d="M1.14502 0.616943H79.8553V79.3272H1.14502V0.616943Z" fill="#FFD700"/>
</g>
</g>
<mask id="mask2_5799_20609" style="mask-type:luminance" maskUnits="userSpaceOnUse" x="12" y="23" width="57" height="50">
<path d="M12.0605 23.5134H68.9393V72.2945H12.0605V23.5134Z" fill="white"/>
</mask>
<g mask="url(#mask2_5799_20609)">
<path fill-rule="evenodd" clip-rule="evenodd" d="M40.522 52.863C30.438 52.863 20.3905 51.4976 14.4574 47.3664C14.4529 47.2669 14.3365 47.2918 14.3632 47.4609C15.5974 54.406 18.3637 59.6884 22.7982 63.5725C26.987 67.2424 32.9763 70.3979 40.4277 70.3962C47.7442 70.3962 53.8117 67.2889 58.0556 63.5725C62.4886 59.6902 65.198 54.4806 66.4905 47.5555C60.6055 51.3862 50.5831 52.863 40.5222 52.863H40.522ZM63.7409 41.9644C65.1196 42.3857 65.8912 43.416 66.4901 44.6173C67.6448 41.8531 64.9636 40.1228 63.1719 39.6891C63.5203 40.2887 63.7392 41.017 63.7409 41.9644ZM14.0792 43.3861C14.1449 44.5874 15.1216 45.2245 15.9745 45.85C15.9365 43.6003 17.152 42.6048 18.7232 41.9644C18.6202 40.5973 19.4646 39.6732 19.4814 38.7417C17.7585 39.7542 13.94 40.8345 14.0792 43.3861ZM48.1986 27.7474C47.4834 27.6566 46.7169 28.1007 45.924 27.937C45.3698 27.8233 45.0662 27.1439 44.5966 26.7999C42.4747 25.2457 39.9246 25.2929 37.8674 26.7999C37.3115 27.207 37.0013 27.8462 36.4454 27.937C35.4849 28.0944 35.1099 27.604 34.1708 27.7474C32.7956 27.958 31.4201 29.3629 30.9489 30.2119C30.5757 30.8837 30.7117 31.5845 30.0962 32.0125C29.3229 32.5501 28.2672 32.3787 27.6317 32.7707C26.7517 33.3131 25.7665 34.7693 25.4518 35.6139C25.2222 36.2311 25.4312 36.9437 24.9782 37.4147C24.4594 37.9542 23.1834 37.786 22.5138 38.1729C21.4793 38.7707 21.0116 40.0126 20.7133 41.3007C20.5858 41.8499 20.7399 42.7259 20.3341 43.2899C19.8263 43.9983 18.3764 43.8739 17.9648 44.8081C17.6422 45.5381 17.9615 46.2813 17.9648 46.9865C28.2009 51.8891 48.1238 52.148 59.8551 48.3137C61.2223 47.8673 64.2385 46.945 64.5936 46.039C65.3268 44.171 62.7005 44.0848 62.1298 43.1954C61.7649 42.6264 61.9074 41.8549 61.7515 41.2062C61.4827 40.0918 60.9486 38.8949 60.2334 38.3624C59.6727 37.9446 57.9389 38.0241 57.3915 37.3198C57.0346 36.8619 57.2156 36.1619 57.0115 35.6139C56.3031 33.7094 54.6258 32.2589 52.2732 32.0125C51.5266 30.0984 50.224 28.0056 48.1984 27.7474H48.1986ZM59.0026 35.7088C61.118 36.4158 62.9546 36.8999 64.7829 37.9833C66.2925 38.8772 68.491 40.3085 68.8592 42.1534C69.065 43.1871 68.8094 44.2755 68.6702 45.47C68.2719 48.8678 67.8273 51.9256 66.7738 54.5684C65.3551 58.1338 63.2963 61.0206 60.9935 63.4777C56.2849 68.4967 49.3997 72.2926 40.4273 72.2926C31.3488 72.2926 24.5366 68.4651 19.8612 63.4777C15.8335 59.184 12.6488 53.7224 12.1837 45.3755C12.116 44.166 11.951 42.8204 12.1834 41.9644C12.46 40.9456 13.6364 39.6824 14.4581 39.0259C16.7205 37.2179 20.2158 36.2726 23.3668 35.4245C24.699 33.3126 25.691 30.8616 28.6743 30.4011C29.771 28.7367 30.7996 26.5302 33.4126 25.9472C34.1278 25.7875 34.9823 26.0384 35.7819 25.8521C36.6412 25.6524 37.8689 24.3513 38.8146 23.9567C41.6982 22.7533 44.6946 24.208 46.5875 25.8521C50.6972 25.5635 52.3561 27.7277 53.6006 30.3066C56.5853 30.923 58.0253 33.0848 59.0026 35.7086" fill="black"/>
</g>
<path fill-rule="evenodd" clip-rule="evenodd" d="M52.2733 32.0124C54.6259 32.2589 56.3034 33.7094 57.0118 35.6139C57.2159 36.1619 57.035 36.8618 57.3916 37.3197C57.9392 38.024 59.673 37.9446 60.2337 38.3623C60.9487 38.8949 61.483 40.0918 61.7519 41.2062C61.9077 41.8548 61.765 42.6264 62.1301 43.1953C62.7008 44.0847 65.3271 44.1709 64.5938 46.039C64.2389 46.9449 61.2226 47.8673 59.8555 48.3136C48.1241 52.1479 28.2017 51.8891 17.9649 46.9864C17.9616 46.2812 17.6423 45.5381 17.9649 44.808C18.3765 43.8739 19.8264 43.9983 20.3343 43.2898C20.74 42.7259 20.5859 41.8498 20.7134 41.3007C21.0117 40.0125 21.4794 38.7707 22.514 38.1729C23.1836 37.7859 24.4595 37.9542 24.9783 37.4147C25.4314 36.9437 25.2223 36.2311 25.4519 35.6139C25.7666 34.7692 26.7518 33.313 27.6318 32.7707C28.2674 32.3787 29.3231 32.55 30.0963 32.0124C30.7118 31.5844 30.5758 30.8836 30.949 30.2118C31.4203 29.3628 32.7957 27.9579 34.1709 27.7473C35.1101 27.6039 35.485 28.0943 36.4456 27.937C37.0014 27.8462 37.3116 27.2069 37.8675 26.7999C39.9247 25.2928 42.4748 25.2457 44.5967 26.7999C45.0664 27.1439 45.37 27.8233 45.9241 27.937C46.717 28.1007 47.4835 27.6565 48.1987 27.7473C50.2244 28.0055 51.5269 30.0984 52.2733 32.0124Z" fill="#F9FBEF"/>
<path fill-rule="evenodd" clip-rule="evenodd" d="M19.4811 38.7417C19.4643 39.6732 18.6197 40.5973 18.7229 41.9644C17.1517 42.6048 15.9363 43.6003 15.9742 45.85C15.1211 45.2245 14.1446 44.5874 14.0789 43.3861C13.9395 40.8345 17.7582 39.7542 19.4811 38.7417Z" fill="#448D57"/>
<path fill-rule="evenodd" clip-rule="evenodd" d="M63.1719 39.6892C64.9635 40.1229 67.6448 41.8532 66.49 44.6174C65.8911 43.4161 65.1196 42.3857 63.7409 41.9645C63.7391 41.0171 63.5202 40.2888 63.1719 39.6892Z" fill="#448D57"/>
<path fill-rule="evenodd" clip-rule="evenodd" d="M66.4902 47.5556C65.1977 54.4808 62.4886 59.6903 58.0554 63.5726C53.8114 67.289 47.7442 70.3963 40.4274 70.3963C32.9765 70.3981 26.9871 67.2426 22.798 63.5726C18.3639 59.6886 15.5976 54.4062 14.3633 47.4611C14.3367 47.292 14.453 47.2671 14.4583 47.3666C20.3902 51.4977 30.4382 52.8631 40.5226 52.8631C50.5832 52.8631 60.6059 51.3864 66.4907 47.5556" fill="#448D57"/>
<mask id="mask3_5799_20609" style="mask-type:luminance" maskUnits="userSpaceOnUse" x="14" y="7" width="53" height="15">
<path d="M14.9062 7.65137H66.0868V21.7672H14.9062V7.65137Z" fill="white"/>
</mask>
<g mask="url(#mask3_5799_20609)">
<path d="M45.8189 58.8452C44.8239 59.125 44.4022 57.5807 45.3933 57.3028C46.7338 56.9272 48.0265 56.4418 49.2773 55.8283C50.2003 55.3767 51.0094 56.7574 50.0844 57.2109C48.7118 57.8843 47.2912 58.4336 45.8189 58.8452ZM53.6727 54.9813C52.8576 55.6105 52.0605 54.22 52.8656 53.6006C56.2102 51.0213 58.7437 47.5168 60.1601 43.5408C60.5039 42.5759 62.0502 42.9935 61.7045 43.9664C60.1341 48.3738 57.373 52.128 53.6727 54.9813ZM36.6341 37.8826C35.6033 37.8826 35.6033 36.2824 36.6341 36.2824C37.6651 36.2824 37.6632 37.8826 36.6341 37.8826ZM56.356 37.2313C55.3251 37.2313 55.3251 35.6309 56.356 35.6309C57.387 35.6309 57.385 37.2313 56.356 37.2313ZM50.548 32.4922C49.517 32.4922 49.517 30.8917 50.548 30.8917C51.5788 30.8917 51.5768 32.4922 50.548 32.4922ZM42.9277 34.0245C41.8949 34.0245 41.8968 32.4243 42.9277 32.4243C43.9587 32.4243 43.9567 34.0245 42.9277 34.0245ZM25.4558 35.7908C24.4241 35.7908 24.4256 34.1904 25.4558 34.1904C26.4866 34.1904 26.4851 35.7908 25.4558 35.7908ZM32.2714 31.6549C31.2397 31.6549 31.2421 30.0547 32.2714 30.0547C33.3031 30.0547 33.3016 31.6549 32.2714 31.6549ZM45.0395 7.88119C45.7809 7.164 46.9136 8.29565 46.1705 9.01283C45.6689 9.49823 45.2833 10.1859 45.1835 10.878C44.9297 12.6062 46.6799 13.4779 47.2954 14.8985C48.0684 16.6832 47.4652 18.7662 46.1705 20.1523C45.467 20.9079 44.3382 19.7738 45.0395 19.0207C45.517 18.5086 45.8787 17.8 46.0046 17.1131C46.3403 15.2916 44.7239 14.4783 44.0026 13.0464C43.1276 11.3104 43.671 9.2049 45.0395 7.88119ZM39.9269 7.88119C40.67 7.164 41.8008 8.29565 41.0596 9.01283C40.5581 9.49823 40.1705 10.1859 40.0707 10.878C39.8188 12.6062 41.569 13.4779 42.1845 14.8985C42.9578 16.6832 42.3523 18.7662 41.0596 20.1523C40.3564 20.9079 39.2254 19.7738 39.9269 19.0207C40.4064 18.5086 40.7678 17.8 40.8938 17.1131C41.2275 15.2916 39.613 14.4783 38.8897 13.0464C38.0148 11.3104 38.5602 9.2049 39.9269 7.88119ZM34.8156 7.88119C35.5572 7.164 36.6902 8.29565 35.9468 9.01283C35.4453 9.49823 35.0598 10.1859 34.9579 10.878C34.7065 12.6062 36.4564 13.4779 37.0717 14.8985C37.845 16.6832 37.2415 18.7662 35.9468 20.1523C35.2436 20.9079 34.1141 19.7738 34.8156 19.0207C35.2936 18.5086 35.6552 17.8 35.7809 17.1131C36.1166 15.2916 34.5002 14.4783 33.7793 13.0464C32.9035 11.3104 33.4476 9.2049 34.8156 7.88119ZM40.4941 60.16C27.9633 60.16 17.6456 50.5057 16.5947 38.2442C16.6045 38.2482 16.6163 38.2562 16.6272 38.2602C16.6593 38.2783 16.6935 38.2942 16.7263 38.3102C16.7738 38.3342 16.8223 38.3582 16.8723 38.3822C16.9083 38.3981 16.9456 38.416 16.9823 38.4341C17.0338 38.4562 17.0862 38.48 17.1392 38.502C17.1783 38.5199 17.218 38.538 17.2586 38.5539C17.3149 38.578 17.3725 38.602 17.431 38.626C17.4725 38.6419 17.5137 38.6598 17.5567 38.6757C17.6191 38.6997 17.6846 38.7237 17.7501 38.7497C17.7931 38.7657 17.8337 38.7796 17.8776 38.7958C17.9539 38.8237 18.0343 38.8516 18.1148 38.8796C18.1506 38.8916 18.1849 38.9036 18.2217 38.9156C18.3409 38.9555 18.4636 38.9974 18.5915 39.0374C18.6065 39.0415 18.6229 39.0455 18.6377 39.0494C18.7508 39.0854 18.8678 39.1194 18.988 39.1552C19.0332 39.1694 19.081 39.1814 19.1271 39.1954C19.2207 39.2214 19.315 39.2473 19.4128 39.2733C19.468 39.2892 19.5249 39.3052 19.5819 39.3191C19.6749 39.3432 19.7676 39.3672 19.8643 39.3912C19.927 39.4071 19.9909 39.423 20.0551 39.439C20.1509 39.463 20.2476 39.487 20.3467 39.509C20.4148 39.525 20.4826 39.5409 20.5514 39.557C20.6535 39.5789 20.7574 39.6029 20.8635 39.6269C20.9329 39.6409 21.0032 39.6568 21.0741 39.6727C21.1874 39.6967 21.3037 39.7207 21.42 39.7428C21.4894 39.7587 21.5564 39.7727 21.6276 39.7866C21.7579 39.8126 21.893 39.8386 22.0281 39.8646C22.0896 39.8766 22.1497 39.8866 22.2127 39.8986C22.4127 39.9366 22.6172 39.9746 22.8287 40.0106C25.2753 40.4359 28.1388 40.7618 31.2552 40.9774C31.444 40.9914 31.633 41.0034 31.8233 41.0174C31.9741 41.0255 32.1247 41.0355 32.2769 41.0453C32.5187 41.0595 32.7638 41.0735 33.0095 41.0874C33.1204 41.0933 33.2315 41.0994 33.3437 41.1053C33.6482 41.1213 33.9557 41.1352 34.2647 41.1494C34.3442 41.1534 34.424 41.1573 34.5035 41.1592C34.8422 41.1754 35.1836 41.1894 35.5273 41.1992C35.5793 41.2033 35.6312 41.2033 35.6832 41.2053C36.0267 41.2173 36.3763 41.2273 36.726 41.2372C36.774 41.2391 36.824 41.2391 36.872 41.2413C37.2275 41.2492 37.5852 41.2572 37.9447 41.2631C37.9868 41.2631 38.0287 41.2651 38.0706 41.2651C38.4443 41.2712 38.8199 41.2771 39.1955 41.2812H39.2774C39.6811 41.2852 40.0866 41.2852 40.4941 41.2852C40.9097 41.2852 41.3255 41.2852 41.7388 41.2812C47.9366 41.2273 53.7286 40.7817 58.1583 40.0106C58.358 39.9765 58.5518 39.9405 58.7417 39.9045C58.7537 39.9045 58.7655 39.9006 58.7755 39.8986C58.8395 39.8866 58.8995 39.8766 58.9615 39.8646C59.0732 39.8427 59.1871 39.8207 59.2969 39.7986C59.319 39.7947 59.3391 39.7908 59.3609 39.7866C59.4329 39.7727 59.5008 39.7587 59.5687 39.7428C59.6527 39.7268 59.7387 39.7087 59.8205 39.6928C59.8524 39.6847 59.8845 39.6788 59.9163 39.6707C59.9864 39.6568 60.0562 39.6409 60.1241 39.6269C60.1881 39.6109 60.2562 39.597 60.3179 39.583C60.36 39.5749 60.4 39.5649 60.4399 39.5549C60.5078 39.5409 60.5737 39.525 60.6416 39.509C60.6896 39.497 60.7416 39.487 60.7876 39.475C60.8395 39.463 60.8873 39.451 60.9354 39.439C60.9993 39.423 61.0633 39.4071 61.1233 39.3912C61.1591 39.3831 61.199 39.3731 61.2331 39.3652C61.2909 39.349 61.347 39.3331 61.4048 39.3191C61.4629 39.3052 61.5188 39.2892 61.5746 39.2733C61.6006 39.2672 61.6287 39.2593 61.6547 39.2532C61.7106 39.2373 61.7625 39.2233 61.8184 39.2074C61.8324 39.2033 61.8464 39.1993 61.8603 39.1954C61.9064 39.1814 61.9544 39.1694 62.0002 39.1555C62.0164 39.1513 62.0323 39.1454 62.0482 39.1413C62.1041 39.1253 62.1541 39.1094 62.208 39.0935C62.256 39.0795 62.306 39.0633 62.354 39.0494C62.368 39.0455 62.3819 39.0415 62.3959 39.0374C62.4038 39.0334 62.4118 39.0315 62.4199 39.0295C62.4719 39.0114 62.5218 38.9955 62.5716 38.9795C62.6375 38.9595 62.7037 38.9376 62.7676 38.9156C62.7715 38.9136 62.7774 38.9117 62.7835 38.9097C62.8294 38.8955 62.8693 38.8796 62.9134 38.8656C62.9732 38.8436 63.0352 38.8237 63.0932 38.8017C63.1052 38.7977 63.1151 38.7958 63.1271 38.7916C63.1631 38.7777 63.1971 38.7637 63.2329 38.7497C63.289 38.7299 63.3449 38.7098 63.3988 38.6877L63.4468 38.6698C63.4848 38.6559 63.5188 38.6419 63.5527 38.626C63.5967 38.6098 63.6406 38.5919 63.6825 38.574C63.7026 38.5659 63.7244 38.5559 63.7445 38.5481C63.7786 38.5341 63.8124 38.5179 63.8464 38.504C63.8783 38.49 63.9123 38.476 63.9464 38.4601C63.9702 38.4481 63.9942 38.4381 64.0202 38.426C64.0522 38.4121 64.0821 38.3981 64.1142 38.3822C64.138 38.3702 64.164 38.3582 64.188 38.3462C64.2181 38.3322 64.2461 38.3182 64.272 38.3043C64.3019 38.2903 64.3318 38.2763 64.3578 38.2624L64.3938 38.2442C63.341 50.5057 53.0234 60.16 40.4941 60.16ZM47.0215 62.5916H33.9659V60.9132C36.0507 61.4647 38.2385 61.7583 40.4941 61.7583C42.75 61.7583 44.9356 61.4647 47.0215 60.9132V62.5916ZM20.021 34.3903C20.0811 34.3903 20.1474 34.3962 20.2295 34.4082L21.2563 34.566L21.1457 33.533C21.1058 33.1594 21.1854 32.8558 21.3602 32.7178C21.5368 32.5801 21.7802 32.6399 21.9105 32.686L22.5746 32.9278L22.8954 32.2983C23.2318 31.639 23.4184 31.5692 23.7632 31.5692C24.2432 31.5692 24.4649 31.6091 24.6085 31.7169C24.8724 31.9166 25.2188 31.9507 25.5138 31.8049C25.7162 31.7049 26.0555 31.4371 26.0555 30.7699C26.0555 30.0226 26.6651 29.4132 27.4144 29.4132C27.7055 29.4132 27.984 29.5051 28.2182 29.6791C28.4843 29.8768 28.8354 29.9067 29.1351 29.755C29.4481 29.597 29.6511 29.2694 29.6511 28.9198C29.6511 28.1705 30.2606 27.5607 31.009 27.5607C31.5357 27.5607 32.0049 27.8569 32.2337 28.3344L33.7252 27.777C33.6916 27.655 33.6743 27.5352 33.6743 27.4188C33.6743 26.6696 34.2837 26.06 35.0321 26.06C35.4778 26.06 35.8953 26.2793 36.1491 26.6478L37.126 28.0566L37.5776 26.4027C37.7393 25.8142 38.2769 25.4037 38.8863 25.4037C39.5576 25.4037 40.1209 25.8852 40.2248 26.5478L40.3108 27.0902L40.8481 27.205C40.8841 27.2128 40.9202 27.2213 40.9581 27.2307L41.6834 27.4031L41.9051 26.6932C42.085 26.1248 42.6064 25.7433 43.2018 25.7433C43.8212 25.7433 44.3627 26.163 44.5165 26.7647L44.976 28.5642L45.9671 26.9928C46.2167 26.5945 46.6463 26.3566 47.1138 26.3566C47.7773 26.3566 48.3386 26.8296 48.4506 27.4804L48.7042 28.9377L49.7832 27.9287C50.0368 27.691 50.3666 27.5607 50.7102 27.5607C51.4594 27.5607 52.0688 28.1705 52.0688 28.9198C52.0688 29.2873 52.3006 29.609 52.6483 29.719C53.0079 29.8308 53.4034 29.6869 53.6313 29.3613C53.8569 29.0337 54.2147 28.8218 54.6101 28.784C55.3574 28.7081 56.0227 29.2535 56.0967 29.9986C56.1006 30.0226 56.1006 30.0447 56.1006 30.0687L56.1525 31.7189L57.4073 30.6839C57.6151 30.5141 57.8669 30.4102 58.1347 30.3823C58.874 30.3083 59.5431 30.8518 59.621 31.593L59.7171 32.5262L60.6241 32.2824C60.706 32.2604 60.778 32.2464 60.8419 32.2403C61.589 32.1624 62.2545 32.71 62.3304 33.4551C62.3444 33.5891 62.3363 33.7268 62.3104 33.8586L62.1166 34.8358L63.1116 34.8157C63.8069 34.7958 64.4183 35.3373 64.4881 36.0366C64.4922 36.0785 64.4942 36.1224 64.4942 36.1684H64.4842C64.4283 36.4762 63.0476 37.5631 57.6251 38.48C53.3056 39.2094 47.6873 39.6328 41.6974 39.6828C41.2977 39.6869 40.8962 39.6869 40.4946 39.6869C40.103 39.6869 39.7134 39.6869 39.3278 39.6828C39.2719 39.6828 39.218 39.6828 39.1639 39.6808C38.8123 39.6788 38.4607 39.6727 38.111 39.6688C38.099 39.6688 38.087 39.6668 38.075 39.6668C32.5418 39.573 27.3886 39.1613 23.3629 38.48C23.0242 38.4241 22.7012 38.3641 22.3928 38.3062C20.0186 37.8566 18.5452 37.3813 17.6648 36.9856C17.7241 36.9775 17.7841 36.9716 17.845 36.9716C17.8614 36.9716 17.8778 36.9716 17.895 36.9736L18.8831 36.9856L18.6897 36.0165C18.6716 35.9286 18.6631 35.8367 18.6631 35.7487C18.6631 34.9997 19.2718 34.3901 20.021 34.3901V34.3903ZM66.0781 36.4242C66.094 36.2383 66.0962 36.0545 66.0781 35.8766C65.9543 34.6439 65.0671 33.645 63.9243 33.3252C63.9224 33.3152 63.9204 33.3054 63.9204 33.2953C63.7685 31.7848 62.4978 30.6501 61.0133 30.6339C60.5357 29.4432 59.3111 28.6581 57.9723 28.7919C57.7886 28.812 57.6068 28.8458 57.4309 28.8977C56.9175 27.7849 55.7368 27.0629 54.4499 27.1925C54.0503 27.2322 53.6688 27.3523 53.3251 27.5413C52.8277 26.6032 51.8427 25.9624 50.7097 25.9624C50.3361 25.9624 49.9725 26.0327 49.6329 26.1654C49.1095 25.3116 48.1703 24.7583 47.1136 24.7583C46.528 24.7583 45.9686 24.9292 45.4972 25.2389C44.9496 24.5632 44.1145 24.1448 43.2013 24.1448C42.4381 24.1448 41.7329 24.4312 41.2015 24.919C40.658 24.233 39.8208 23.8054 38.8858 23.8054C37.9748 23.8054 37.1376 24.2267 36.5883 24.9048C36.1266 24.6193 35.5893 24.4617 35.0317 24.4617C33.8103 24.4617 32.7586 25.2071 32.3089 26.2678C31.91 26.0709 31.4667 25.9624 31.0086 25.9624C29.7263 25.9624 28.632 26.7835 28.223 27.9267C27.9626 27.853 27.6909 27.815 27.4139 27.815C26.0448 27.815 24.8898 28.75 24.5542 30.0226C24.2835 29.9787 24.0151 29.9707 23.7628 29.9707C22.7592 29.9707 22.18 30.4543 21.7821 31.0377C21.2662 31.0037 20.7744 31.1475 20.3742 31.4592C19.9573 31.7868 19.6858 32.2623 19.5828 32.8239C19.0529 32.9038 18.5699 33.1255 18.1709 33.4472C16.7271 33.9346 14.9062 34.74 14.9062 36.1724C14.9062 47.4408 22.23 57.0311 32.3674 60.4356V64.1898H48.6199V60.4356C58.6817 57.0571 65.9703 47.5827 66.0781 36.4242Z" fill="black"/>
</g>
</svg>
