<svg width="30" height="30" viewBox="0 0 30 30" fill="none" xmlns="http://www.w3.org/2000/svg">
<path d="M17.5 21.25H12.5M27.5 16.25C24.4287 14.7163 19.9663 13.75 15 13.75C10.0337 13.75 5.57125 14.7163 2.5 16.25M8.75 18.75C7.75544 18.75 6.80161 19.1451 6.09835 19.8483C5.39509 20.5516 5 21.5054 5 22.5C5 23.4946 5.39509 24.4484 6.09835 25.1517C6.80161 25.8549 7.75544 26.25 8.75 26.25C9.74456 26.25 10.6984 25.8549 11.4017 25.1517C12.1049 24.4484 12.5 23.4946 12.5 22.5C12.5 21.5054 12.1049 20.5516 11.4017 19.8483C10.6984 19.1451 9.74456 18.75 8.75 18.75ZM21.25 18.75C20.2554 18.75 19.3016 19.1451 18.5983 19.8483C17.8951 20.5516 17.5 21.5054 17.5 22.5C17.5 23.4946 17.8951 24.4484 18.5983 25.1517C19.3016 25.8549 20.2554 26.25 21.25 26.25C22.2446 26.25 23.1984 25.8549 23.9017 25.1517C24.6049 24.4484 25 23.4946 25 22.5C25 21.5054 24.6049 20.5516 23.9017 19.8483C23.1984 19.1451 22.2446 18.75 21.25 18.75Z" stroke="white" stroke-width="1.5" stroke-linecap="round" stroke-linejoin="round"/>
<path d="M23.75 14.375L22.4275 5.88996C22.1587 4.15996 20.2787 3.22246 18.7612 4.06121L17.9925 4.48621C17.0767 4.99358 16.0469 5.25977 15 5.25977C13.9531 5.25977 12.9233 4.99358 12.0075 4.48621L11.2388 4.06121C9.72125 3.22371 7.84125 4.16121 7.5725 5.88996L6.25 14.375" stroke="white" stroke-width="1.5" stroke-linecap="round" stroke-linejoin="round"/>
</svg>
