<svg width="5" height="6" viewBox="0 0 5 6" fill="none" xmlns="http://www.w3.org/2000/svg">
<g clip-path="url(#clip0_4081_29508)">
<path d="M5 3C5 3.49445 4.85338 3.9778 4.57867 4.38893C4.30397 4.80005 3.91353 5.12048 3.45671 5.3097C2.9999 5.49892 2.49723 5.54843 2.01228 5.45196C1.52732 5.3555 1.08187 5.1174 0.732235 4.76777C0.382604 4.41813 0.144501 3.97268 0.0480379 3.48773C-0.0484251 3.00277 0.0010832 2.50011 0.190302 2.04329C0.379521 1.58648 0.699953 1.19603 1.11108 0.921326C1.5222 0.646623 2.00555 0.5 2.5 0.5C3.16304 0.5 3.79893 0.763393 4.26777 1.23223C4.73661 1.70107 5 2.33696 5 3Z" fill="black"/>
</g>
<defs>
<clipPath id="clip0_4081_29508">
<rect width="5" height="5" fill="white" transform="translate(0 0.5)"/>
</clipPath>
</defs>
</svg>
