<svg width="24" height="20" viewBox="0 0 24 20" fill="none" xmlns="http://www.w3.org/2000/svg">
<g clip-path="url(#clip0_7389_44568)">
<path d="M20.1666 3.00008H18.3163L17.1496 1.83341C16.4741 1.15791 15.2888 0.666748 14.3333 0.666748H9.66659C8.71109 0.666748 7.52575 1.15791 6.85025 1.83341L5.68359 3.00008H3.83325C1.90359 3.00008 0.333252 4.57041 0.333252 6.50008V15.8334C0.333252 17.7631 1.90359 19.3334 3.83325 19.3334H20.1666C22.0963 19.3334 23.6666 17.7631 23.6666 15.8334V6.50008C23.6666 4.57041 22.0963 3.00008 20.1666 3.00008ZM11.9999 14.6667C10.9168 14.6666 9.8781 14.2362 9.11233 13.4702C8.34655 12.7042 7.91643 11.6654 7.91659 10.5822C7.91674 9.49913 8.34716 8.46043 9.11315 7.69465C9.87914 6.92888 10.918 6.49876 12.0011 6.49891C13.0842 6.49907 14.1229 6.92949 14.8887 7.69548C15.6545 8.46147 16.0846 9.50029 16.0844 10.5834C16.0843 11.6665 15.6538 12.7052 14.8879 13.471C14.1219 14.2368 13.083 14.6669 11.9999 14.6667ZM18.9999 9.18225C18.8007 9.18225 18.6035 9.14302 18.4195 9.0668C18.2355 8.99058 18.0683 8.87886 17.9275 8.73803C17.7866 8.59719 17.6749 8.43 17.5987 8.24598C17.5225 8.06197 17.4833 7.86475 17.4833 7.66558C17.4833 7.46641 17.5225 7.26919 17.5987 7.08518C17.6749 6.90117 17.7866 6.73397 17.9275 6.59314C18.0683 6.4523 18.2355 6.34058 18.4195 6.26436C18.6035 6.18814 18.8007 6.14891 18.9999 6.14891C19.4022 6.14891 19.7879 6.30871 20.0724 6.59314C20.3568 6.87757 20.5166 7.26334 20.5166 7.66558C20.5166 8.06783 20.3568 8.4536 20.0724 8.73803C19.7879 9.02246 19.4022 9.18225 18.9999 9.18225Z" fill="white"/>
</g>
<defs>
<clipPath id="clip0_7389_44568">
<rect width="24" height="20" fill="white"/>
</clipPath>
</defs>
</svg>
