<svg width="30" height="30" viewBox="0 0 30 30" fill="none" xmlns="http://www.w3.org/2000/svg">
<g clip-path="url(#clip0_7524_18807)">
<path fill-rule="evenodd" clip-rule="evenodd" d="M4.39282 4.39307V20.8931H17.5852V19.7145H5.57139V5.57164H21.4821V6.82092H22.6607V4.39307H4.39282ZM22.6607 10.2859C22.6607 10.5985 22.5365 10.8983 22.3155 11.1193C22.0945 11.3403 21.7947 11.4645 21.4821 11.4645C21.1695 11.4645 20.8698 11.3403 20.6487 11.1193C20.4277 10.8983 20.3035 10.5985 20.3035 10.2859C20.3035 9.97335 20.4277 9.67357 20.6487 9.45255C20.8698 9.23152 21.1695 9.10735 21.4821 9.10735C21.7947 9.10735 22.0945 9.23152 22.3155 9.45255C22.5365 9.67357 22.6607 9.97335 22.6607 10.2859ZM23.8393 10.2859C23.8393 10.9111 23.5909 11.5106 23.1489 11.9527C22.7068 12.3947 22.1073 12.6431 21.4821 12.6431C20.857 12.6431 20.2574 12.3947 19.8154 11.9527C19.3733 11.5106 19.125 10.9111 19.125 10.2859C19.125 9.66077 19.3733 9.06122 19.8154 8.61917C20.2574 8.17712 20.857 7.92878 21.4821 7.92878C22.1073 7.92878 22.7068 8.17712 23.1489 8.61917C23.5909 9.06122 23.8393 9.66077 23.8393 10.2859Z" fill="black"/>
<path fill-rule="evenodd" clip-rule="evenodd" d="M18.5904 13.7215C18.9191 13.4078 19.3559 13.2326 19.8103 13.2324H22.2157C23.0784 13.2324 23.8816 13.5259 24.5004 14.1105C25.0956 14.6726 25.4055 15.3933 25.5322 16.0763C25.7314 17.15 25.5252 18.3233 25.0178 19.3633V24.1342C25.0178 24.5039 24.8788 24.8601 24.6284 25.1321C24.378 25.4041 24.0345 25.572 23.6661 25.6025C23.2976 25.6329 22.9312 25.5238 22.6395 25.2967C22.3478 25.0696 22.1522 24.7411 22.0914 24.3764L21.7767 22.4883L21.462 24.3764C21.4013 24.7411 21.2056 25.0696 20.9139 25.2967C20.6222 25.5238 20.2558 25.6329 19.8873 25.6025C19.5189 25.572 19.1754 25.4041 18.925 25.1321C18.6746 24.8601 18.5356 24.5039 18.5356 24.1342V18.5908C18.2669 18.746 17.962 18.8277 17.6517 18.8277H14.6452C14.1763 18.8277 13.7267 18.6414 13.3951 18.3099C13.0636 17.9784 12.8773 17.5287 12.8773 17.0598C12.8773 16.591 13.0636 16.1413 13.3951 15.8098C13.7267 15.4782 14.1763 15.292 14.6452 15.292H16.9434L18.5904 13.7215ZM19.7142 20.5838V24.1342C19.7144 24.208 19.7423 24.2791 19.7924 24.3333C19.8424 24.3875 19.911 24.421 19.9846 24.427C20.0582 24.4331 20.1313 24.4114 20.1896 24.3661C20.2479 24.3208 20.2871 24.2553 20.2994 24.1825L20.914 20.496C20.9369 20.3584 21.0078 20.2333 21.1142 20.1431C21.2206 20.0529 21.3555 20.0034 21.495 20.0033H22.0584C22.1979 20.0034 22.3328 20.0529 22.4392 20.1431C22.5456 20.2333 22.6166 20.3584 22.6394 20.496L23.2541 24.1825C23.2664 24.2553 23.3055 24.3208 23.3638 24.3661C23.4221 24.4114 23.4953 24.4331 23.5688 24.427C23.6424 24.421 23.711 24.3875 23.761 24.3333C23.8111 24.2791 23.839 24.208 23.8392 24.1342V19.2237C23.8392 19.1294 23.8618 19.0364 23.9052 18.9526C24.3601 18.074 24.5257 17.1117 24.3737 16.2914C24.2812 15.7929 24.0649 15.3203 23.6913 14.9673C23.31 14.6072 22.8044 14.411 22.2157 14.411H19.8109C19.6594 14.411 19.5133 14.4693 19.4037 14.5736L17.5863 16.3073C17.4768 16.412 17.3312 16.4704 17.1797 16.4705H14.6452C14.4889 16.4705 14.339 16.5326 14.2285 16.6431C14.118 16.7537 14.0559 16.9035 14.0559 17.0598C14.0559 17.2161 14.118 17.366 14.2285 17.4765C14.339 17.587 14.4889 17.6491 14.6452 17.6491H17.6517C17.8032 17.649 17.9488 17.5905 18.0583 17.4859L18.7183 16.8565C18.8018 16.7769 18.9068 16.7236 19.0204 16.7031C19.1339 16.6827 19.2509 16.696 19.357 16.7414C19.463 16.7868 19.5534 16.8624 19.6169 16.9587C19.6804 17.055 19.7142 17.1678 19.7142 17.2832V20.5838Z" fill="black"/>
</g>
<defs>
<clipPath id="clip0_7524_18807">
<rect width="22" height="22" fill="white" transform="translate(4 4)"/>
</clipPath>
</defs>
</svg>
