<svg width="26" height="27" viewBox="0 0 26 27" fill="none" xmlns="http://www.w3.org/2000/svg">
<path d="M14.6237 0.935059L25.4162 19.6276C25.5808 19.9126 25.6674 20.2359 25.6674 20.565C25.6674 20.8942 25.5808 21.2175 25.4162 21.5025C25.2517 21.7876 25.015 22.0243 24.73 22.1888C24.4449 22.3534 24.1216 22.44 23.7925 22.4401H2.20747C1.87834 22.44 1.55502 22.3534 1.26999 22.1888C0.984959 22.0243 0.74827 21.7876 0.58371 21.5025C0.41915 21.2175 0.332517 20.8942 0.33252 20.565C0.332522 20.2359 0.419158 19.9126 0.583722 19.6276L11.3762 0.935059C12.0975 -0.314941 13.9012 -0.314941 14.6237 0.935059ZM13 15.7501C12.6685 15.7501 12.3505 15.8818 12.1161 16.1162C11.8817 16.3506 11.75 16.6685 11.75 17.0001C11.75 17.3316 11.8817 17.6495 12.1161 17.8839C12.3505 18.1184 12.6685 18.2501 13 18.2501C13.3315 18.2501 13.6494 18.1184 13.8839 17.8839C14.1183 17.6495 14.25 17.3316 14.25 17.0001C14.25 16.6685 14.1183 16.3506 13.8839 16.1162C13.6494 15.8818 13.3315 15.7501 13 15.7501ZM13 7.00006C12.6938 7.0001 12.3983 7.1125 12.1695 7.31595C11.9407 7.5194 11.7945 7.79975 11.7587 8.10381L11.75 8.25006V13.2501C11.7503 13.5687 11.8723 13.8751 12.091 14.1068C12.3097 14.3384 12.6087 14.4779 12.9267 14.4965C13.2448 14.5152 13.5579 14.4117 13.8023 14.2072C14.0466 14.0027 14.2036 13.7127 14.2412 13.3963L14.25 13.2501V8.25006C14.25 7.91854 14.1183 7.6006 13.8839 7.36618C13.6494 7.13176 13.3315 7.00006 13 7.00006Z" fill="black"/>
</svg>
