<svg width="30" height="30" viewBox="0 0 30 30" fill="none" xmlns="http://www.w3.org/2000/svg">
<path opacity="0.978" fill-rule="evenodd" clip-rule="evenodd" d="M13.9159 1.84554C17.7871 1.59872 20.8046 3.06356 22.9686 6.24007C23.6978 7.45109 24.1471 8.75972 24.3163 10.1659C24.3184 12.8628 24.3574 15.5581 24.4335 18.2518C24.4788 18.4597 24.5569 18.655 24.6678 18.8377C25.2785 19.7269 25.9035 20.6059 26.5428 21.4744C27.023 22.5119 26.8179 23.381 25.9276 24.0819C25.7587 24.1761 25.583 24.2542 25.4003 24.3162C23.4664 24.326 21.5328 24.3553 19.5995 24.4041C18.9349 26.7281 17.392 27.9781 14.9706 28.1541C12.5492 27.9781 11.0062 26.7281 10.3417 24.4041C8.40838 24.3553 6.47478 24.326 4.5409 24.3162C3.42027 23.8783 2.98081 23.0678 3.22254 21.8846C3.28113 21.7479 3.33972 21.6111 3.39832 21.4744C4.03771 20.6059 4.66271 19.7269 5.27332 18.8377C5.38424 18.655 5.46236 18.4597 5.50769 18.2518C5.58372 15.5581 5.62279 12.8628 5.62488 10.1659C6.25441 6.11873 8.51027 3.45271 12.3925 2.16781C12.9044 2.04013 13.4122 1.93271 13.9159 1.84554ZM14.912 3.72054C18.5466 3.92885 20.9587 5.74526 22.1483 9.16976C22.2565 9.55443 22.3346 9.94501 22.3827 10.3416C22.4381 13.1555 22.4967 15.968 22.5585 18.7791C22.6902 19.2379 22.8855 19.6676 23.1444 20.0682C23.7011 20.8592 24.2577 21.6502 24.8143 22.4412C18.2518 22.4803 11.6893 22.4803 5.12683 22.4412C5.71533 21.5865 6.31101 20.7369 6.91394 19.8924C7.11902 19.541 7.27529 19.1699 7.38269 18.7791C7.44445 15.968 7.50304 13.1555 7.55847 10.3416C7.93576 7.85632 9.19553 5.97154 11.3378 4.68734C12.461 4.08132 13.6524 3.75906 14.912 3.72054ZM12.3925 24.3455C14.1117 24.326 15.8304 24.3455 17.5487 24.4041C16.8792 25.8327 15.7659 26.3893 14.2089 26.0741C13.325 25.7858 12.7195 25.2096 12.3925 24.3455Z" fill="#448D57"/>
<path d="M17.8687 9.04162L19.601 18.5H10.1028L11.246 9.42952L14.8 7.24647L17.8687 9.04162Z" stroke="#448D57" stroke-width="9"/>
</svg>
