<svg width="30" height="30" viewBox="0 0 30 30" fill="none" xmlns="http://www.w3.org/2000/svg">
<path opacity="0.978" fill-rule="evenodd" clip-rule="evenodd" d="M13.9159 1.84603C17.7871 1.5992 20.8046 3.06405 22.9686 6.24056C23.6978 7.45158 24.1471 8.76021 24.3163 10.1663C24.3184 12.8633 24.3574 15.5586 24.4335 18.2523C24.4788 18.4602 24.5569 18.6555 24.6678 18.8382C25.2785 19.7274 25.9035 20.6063 26.5428 21.4749C27.023 22.5124 26.8179 23.3815 25.9276 24.0824C25.7587 24.1766 25.583 24.2547 25.4003 24.3167C23.4664 24.3265 21.5328 24.3558 19.5995 24.4046C18.9349 26.7286 17.392 27.9786 14.9706 28.1546C12.5492 27.9786 11.0062 26.7286 10.3417 24.4046C8.40838 24.3558 6.47478 24.3265 4.5409 24.3167C3.42027 23.8788 2.98081 23.0683 3.22254 21.8851C3.28113 21.7484 3.33972 21.6116 3.39832 21.4749C4.03771 20.6063 4.66271 19.7274 5.27332 18.8382C5.38424 18.6555 5.46236 18.4602 5.50769 18.2523C5.58372 15.5586 5.62279 12.8633 5.62488 10.1663C6.25441 6.11921 8.51027 3.4532 12.3925 2.1683C12.9044 2.04061 13.4122 1.93319 13.9159 1.84603ZM14.912 3.72103C18.5466 3.92934 20.9587 5.74574 22.1483 9.17025C22.2565 9.55492 22.3346 9.9455 22.3827 10.3421C22.4381 13.156 22.4967 15.9685 22.5585 18.7796C22.6902 19.2384 22.8855 19.6681 23.1444 20.0687C23.7011 20.8597 24.2577 21.6507 24.8143 22.4417C18.2518 22.4808 11.6893 22.4808 5.12683 22.4417C5.71533 21.587 6.31101 20.7374 6.91394 19.8929C7.11902 19.5415 7.27529 19.1704 7.38269 18.7796C7.44445 15.9685 7.50304 13.156 7.55847 10.3421C7.93576 7.85681 9.19553 5.97203 11.3378 4.68783C12.461 4.08181 13.6524 3.75954 14.912 3.72103ZM12.3925 24.346C14.1117 24.3265 15.8304 24.346 17.5487 24.4046C16.8792 25.8331 15.7659 26.3898 14.2089 26.0745C13.325 25.7863 12.7195 25.2101 12.3925 24.346Z" fill="black"/>
</svg>
