<svg width="30" height="30" viewBox="0 0 30 30" fill="none" xmlns="http://www.w3.org/2000/svg">
<path d="M15 27.5C13.2708 27.5 11.6458 27.1717 10.125 26.515C8.60417 25.8583 7.28125 24.9679 6.15625 23.8438C5.03125 22.7196 4.14083 21.3967 3.485 19.875C2.82917 18.3533 2.50083 16.7283 2.5 15C2.49917 13.2717 2.8275 11.6467 3.485 10.125C4.1425 8.60333 5.03292 7.28042 6.15625 6.15625C7.27958 5.03208 8.6025 4.14167 10.125 3.485C11.6475 2.82833 13.2725 2.5 15 2.5C16.7275 2.5 18.3525 2.82833 19.875 3.485C21.3975 4.14167 22.7204 5.03208 23.8438 6.15625C24.9671 7.28042 25.8579 8.60333 26.5162 10.125C27.1746 11.6467 27.5025 13.2717 27.5 15C27.4975 16.7283 27.1692 18.3533 26.515 19.875C25.8608 21.3967 24.9704 22.7196 23.8438 23.8438C22.7171 24.9679 21.3942 25.8587 19.875 26.5162C18.3558 27.1737 16.7308 27.5017 15 27.5ZM13.75 24.9375V22.5C13.0625 22.5 12.4742 22.2554 11.985 21.7663C11.4958 21.2771 11.2508 20.6883 11.25 20V18.75L5.25 12.75C5.1875 13.125 5.13042 13.5 5.07875 13.875C5.02708 14.25 5.00083 14.625 5 15C5 17.5208 5.82833 19.7292 7.485 21.625C9.14167 23.5208 11.23 24.625 13.75 24.9375ZM22.375 21.75C23.2292 20.8125 23.8804 19.7658 24.3287 18.61C24.7771 17.4542 25.0008 16.2508 25 15C25 12.9583 24.4325 11.0938 23.2975 9.40625C22.1625 7.71875 20.6467 6.5 18.75 5.75V6.25C18.75 6.9375 18.5054 7.52625 18.0162 8.01625C17.5271 8.50625 16.9383 8.75083 16.25 8.75H13.75V11.25C13.75 11.6042 13.63 11.9013 13.39 12.1413C13.15 12.3813 12.8533 12.5008 12.5 12.5H10V15H17.5C17.8542 15 18.1513 15.12 18.3913 15.36C18.6313 15.6 18.7508 15.8967 18.75 16.25V20H20C20.5417 20 21.0312 20.1617 21.4687 20.485C21.9062 20.8083 22.2083 21.23 22.375 21.75Z" fill="#448D57"/>
</svg>
