<svg width="30" height="30" viewBox="0 0 30 30" fill="none" xmlns="http://www.w3.org/2000/svg">
<mask id="mask0_7100_4450" style="mask-type:luminance" maskUnits="userSpaceOnUse" x="1" y="3" width="28" height="24">
<path d="M1 3H29V26.974H1V3Z" fill="white"/>
</mask>
<g mask="url(#mask0_7100_4450)">
<mask id="mask1_7100_4450" style="mask-type:luminance" maskUnits="userSpaceOnUse" x="-3" y="-2" width="36" height="33">
<path d="M5.13406 -1.56689L32.0603 7.72065L24.0932 30.8187L-2.83301 21.5312L5.13406 -1.56689Z" fill="white"/>
</mask>
<g mask="url(#mask1_7100_4450)">
<mask id="mask2_7100_4450" style="mask-type:luminance" maskUnits="userSpaceOnUse" x="-3" y="-2" width="36" height="33">
<path d="M5.13406 -1.56689L32.0603 7.72065L24.0932 30.8187L-2.83301 21.5312L5.13406 -1.56689Z" fill="white"/>
</mask>
<g mask="url(#mask2_7100_4450)">
<path fill-rule="evenodd" clip-rule="evenodd" d="M13.8154 16.9744C9.04177 15.3278 4.5084 13.0408 2.37432 10.1165C2.38839 10.0686 2.32927 10.0614 2.31418 10.1458C1.76446 13.635 2.21144 16.5875 3.67655 19.1501C5.06025 21.5714 7.38028 24.0431 10.9079 25.2591C14.3715 26.4537 17.7511 25.9734 20.367 24.9071C23.0995 23.7931 25.2327 21.7693 26.9752 18.7021C23.5639 19.5547 18.5783 18.6171 13.8155 16.9744H13.8154ZM26.5866 15.6063C27.1704 16.0309 27.3675 16.6447 27.4549 17.3111C28.4528 16.1911 27.4662 14.9342 26.6887 14.4364C26.7558 14.7771 26.7405 15.1576 26.5866 15.6063ZM2.84517 8.17056C2.68008 8.74992 3.03839 9.21097 3.34012 9.64634C3.68943 8.57511 4.42739 8.30238 5.27568 8.25576C5.45017 7.59176 6.00084 7.29217 6.16087 6.85395C5.17998 7.052 3.19582 6.93986 2.84517 8.17056ZM21.5504 6.33837C21.2267 6.17866 20.7914 6.26369 20.4426 6.0568C20.1989 5.91249 20.1661 5.54122 20 5.30176C19.2493 4.21947 18.0344 3.82552 16.8144 4.20295C16.4849 4.3049 16.2336 4.55692 15.9557 4.50911C15.4752 4.42676 15.3778 4.13341 14.9098 4.0479C14.2244 3.92304 13.3439 4.36354 12.9822 4.6885C12.6958 4.94558 12.6458 5.29947 12.2845 5.40157C11.8308 5.52992 11.3589 5.27639 10.9941 5.35811C10.4889 5.47128 9.78479 5.99974 9.49784 6.34817C9.28834 6.60288 9.27103 6.97431 8.97965 7.12328C8.64592 7.29398 8.06948 7.006 7.68928 7.07982C7.10186 7.19393 6.67772 7.7054 6.3262 8.2665C6.17621 8.50564 6.10603 8.94551 5.82184 9.14625C5.46574 9.39874 4.79977 9.1031 4.45229 9.47801C4.18043 9.77096 4.21022 10.175 4.09658 10.5092C8.1418 14.5015 17.5308 17.8771 23.7104 17.9776C24.4304 17.9895 26.0089 18.0454 26.3249 17.6745C26.9771 16.9099 25.7478 16.4402 25.6229 15.9261C25.543 15.5971 25.7365 15.2551 25.7686 14.9226C25.8233 14.3512 25.7659 13.6973 25.5143 13.3286C25.3171 13.0391 24.4833 12.7937 24.3392 12.3709C24.2451 12.0958 24.445 11.7941 24.4379 11.5014C24.4135 10.484 23.8563 9.52361 22.7829 9.02272C22.7419 7.99473 22.4672 6.79136 21.5503 6.33837H21.5504ZM25.365 11.8713C26.2509 12.5513 27.0413 13.0804 27.7299 13.8919C28.2986 14.5616 29.1055 15.5981 28.9787 16.5316C28.9073 17.0545 28.6086 17.528 28.3476 18.0707C27.6043 19.6142 26.8945 20.9891 25.9643 22.0682C24.7106 23.5244 23.2645 24.5548 21.7732 25.342C18.7248 26.949 14.8455 27.6218 10.5981 26.1567C6.30044 24.6743 3.70065 21.7501 2.30161 18.6258C1.09612 15.9356 0.480251 12.83 1.62292 8.80271C1.78848 8.21909 1.93002 7.55517 2.17991 7.18793C2.47713 6.75082 3.24023 6.34485 3.73637 6.16831C5.10269 5.68181 6.91164 5.80509 8.54176 5.9181C9.5172 5.13588 10.3871 4.1376 11.8745 4.40669C12.6654 3.79778 13.5127 2.9212 14.8449 3.0719C15.2094 3.113 15.5729 3.37142 15.9819 3.4137C16.4214 3.45946 17.215 3.04408 17.7271 3.01168C19.2886 2.91282 20.4696 4.09065 21.0972 5.17808C23.0897 5.71255 23.5218 7.0079 23.6898 8.43191C25.0021 9.21105 25.3308 10.4696 25.365 11.8713Z" fill="black"/>
</g>
</g>
</g>
</svg>
