<svg width="1" height="1" viewBox="0 0 1 1" fill="none" xmlns="http://www.w3.org/2000/svg">
<g clip-path="url(#clip0_7268_27447)">
<path d="M1 0.5C1 0.598891 0.970676 0.695561 0.915735 0.777785C0.860794 0.86001 0.782705 0.924096 0.691342 0.96194C0.599979 0.999783 0.499445 1.00969 0.402455 0.990392C0.305465 0.9711 0.216373 0.923479 0.146447 0.853553C0.0765207 0.783627 0.0289002 0.694535 0.00960758 0.597545C-0.00968502 0.500555 0.000216641 0.400021 0.0380604 0.308658C0.0759043 0.217295 0.139991 0.139206 0.222215 0.0842652C0.30444 0.0293245 0.40111 0 0.5 0C0.632608 0 0.759785 0.0526785 0.853553 0.146447C0.947322 0.240215 1 0.367392 1 0.5Z" fill="white"/>
</g>
<defs>
<clipPath id="clip0_7268_27447">
<rect width="1" height="1" fill="white"/>
</clipPath>
</defs>
</svg>
